<svg width="174" height="105" viewBox="0 0 174 105" xmlns="http://www.w3.org/2000/svg" xmlns:xlink="http://www.w3.org/1999/xlink"><svg width="16" height="10" viewBox="0 0 16 10" x="122" y="38"><path d="M8.208 9.374L16 1.596 14.586.182 8.208 6.546 1.858.182.444 1.596l7.764 7.778z" fill="#555"/></svg><svg width="10" height="16" viewBox="0 0 10 16" x="122" y="48"><path d="M0 7.764l7.778 7.792 1.414-1.414-6.364-6.378 6.364-6.35L7.778 0 0 7.764z" fill="#555"/></svg><svg width="10" height="16" viewBox="0 0 10 16" x="132" y="48"><path d="M9.192 7.792L1.414 0 0 1.414l6.364 6.378L0 14.142l1.414 1.414 7.778-7.764z" fill="#555"/></svg><svg width="13" height="13" viewBox="0 0 13 13" x="156" y="48"><path d="M9.584 7.44H8.56c-.075.48-.283.872-.624 1.176-.34.304-.784.456-1.328.456-.384 0-.728-.077-1.032-.232-.304-.155-.563-.36-.776-.616-.213-.256-.376-.555-.488-.896-.112-.34-.168-.7-.168-1.072 0-.384.053-.74.16-1.072.107-.33.26-.62.464-.872s.456-.445.76-.584c.304-.14.653-.208 1.048-.208.544 0 .99.147 1.336.44.347.293.563.664.648 1.112h1.008c-.128-.8-.47-1.405-1.024-1.816-.555-.41-1.216-.616-1.984-.616-.544 0-1.035.09-1.472.272-.437.18-.805.432-1.104.752-.3.32-.528.704-.688 1.152-.16.448-.24.94-.24 1.472 0 .523.083 1.008.248 1.456.165.448.403.835.712 1.16.31.325.683.58 1.12.768.437.187.928.28 1.472.28.736 0 1.373-.224 1.912-.672.54-.448.893-1.06 1.064-1.84zM1.472 6.256c0-.715.125-1.38.376-2s.597-1.155 1.04-1.608c.443-.453.965-.81 1.568-1.072.603-.26 1.256-.392 1.96-.392.693 0 1.34.13 1.936.392s1.117.62 1.56 1.072c.443.453.79.99 1.04 1.608.25.62.376 1.285.376 2 0 .736-.125 1.416-.376 2.04-.25.624-.597 1.165-1.04 1.624-.443.46-.963.82-1.56 1.08-.597.26-1.243.392-1.936.392-.704 0-1.357-.13-1.96-.392s-1.125-.62-1.568-1.08c-.443-.46-.79-1-1.04-1.624-.25-.624-.376-1.304-.376-2.04zm-1.088 0c0 .864.16 1.66.48 2.392.32.73.755 1.365 1.304 1.904.55.54 1.19.957 1.92 1.256.73.3 1.507.448 2.328.448s1.595-.15 2.32-.448c.725-.3 1.36-.717 1.904-1.256.544-.54.976-1.173 1.296-1.904.32-.73.48-1.528.48-2.392 0-.843-.16-1.627-.48-2.352-.32-.725-.752-1.355-1.296-1.888-.544-.533-1.18-.952-1.904-1.256-.725-.304-1.5-.456-2.32-.456-.82 0-1.597.152-2.328.456-.73.304-1.37.723-1.92 1.256-.55.533-.984 1.163-1.304 1.888-.32.725-.48 1.51-.48 2.352z" fill="#EAB121"/></svg><svg width="14" height="10" viewBox="0 0 14 10" y="38" x="138"><path d="M.24 9.605c.198.24.5.395.835.395h11.85c.37 0 .7-.19.892-.475L9.29 5 7 7 4.81 5.035.24 9.605zM0 8.432V1.07C0 .962.016.858.046.76l4.02 3.606L0 8.432zm14-.14V1.07l-.014-.172-3.94 3.44L14 8.294zM.81.032L1.074 0h11.85c.14 0 .276.027.4.077L6.998 5.7.808.033z" fill="#EAB121"/></svg><svg width="14" height="16" viewBox="0 0 14 16" y="48" x="142"><path d="M4.283 10.62c-.696-.902-2.316-2.612-2.917-4.426C.626 3.957.6 3.254.706 2.487c.11-.768.335-1.02.552-1.127L3.08.445s.396-.222.637.436c.192.527 1.175 2.597 1.175 2.597s.28.298.278.7c0 .298-.353.61-.59.795-.488.386-.615.407-.697.99-.082.584 1.09 2.374 1.43 2.833.337.46.297.456.66.896.43.52 1.55 1.89 2.118 1.79.524-.09.72-.066 1.245-.506.438-.367 1.154-.014 1.43.28.276.293 1.747 1.406 2.16 1.774.41.37.312.865.312.865L11.95 15.37c-.162.183-.54.315-1.29.21-.75-.106-1.522-.208-3.297-1.72-1.407-1.197-2.387-2.342-3.083-3.243" fill="#EAB121"/></svg><svg width="174" height="38" viewBox="0 0 173 37"><path d="M24.517 23.106c0 1.926-.24 3.727-.72 5.403-.48 1.675-1.24 3.135-2.283 4.38-1.042 1.245-2.39 2.233-4.045 2.963-1.656.73-3.64 1.096-5.958 1.096-1.787 0-3.623-.15-5.51-.45-1.885-.3-3.59-.796-5.11-1.493-.398-.166-.646-.365-.745-.598-.1-.233-.15-.53-.15-.897V.996C0 .598.083.332.25.2.41.065.693 0 1.09 0h5.113c.364 0 .63.058.794.174.165.116.248.39.248.822v9.362c.86-.266 1.803-.465 2.83-.598 1.025-.133 2.034-.2 3.026-.2 2.02 0 3.75.35 5.188 1.047 1.44.697 2.622 1.652 3.548 2.863.926 1.212 1.605 2.648 2.035 4.308.43 1.66.646 3.436.646 5.328zm-7.494.15c0-2.524-.48-4.4-1.44-5.628-.96-1.228-2.298-1.843-4.02-1.843-.43 0-1.058.04-1.885.124-.827.08-1.638.255-2.432.52v13.845c.662.2 1.357.332 2.084.398.728.066 1.323.1 1.787.1 1.82 0 3.26-.564 4.318-1.693 1.06-1.128 1.588-3.07 1.588-5.825zm37.023-.05c0 4.38-1.042 7.767-3.127 10.158-2.086 2.39-5.263 3.585-9.53 3.585-4.3 0-7.445-1.197-9.43-3.587-1.986-2.39-2.98-5.743-2.98-10.06 0-2.124.29-4.04.87-5.75s1.406-3.147 2.48-4.31 2.383-2.057 3.92-2.688c1.54-.63 3.286-.946 5.238-.946 4.168 0 7.303 1.202 9.404 3.61 2.1 2.406 3.15 5.734 3.15 9.984zm-7.494.148c0-1.13-.083-2.158-.248-3.087-.165-.93-.447-1.726-.844-2.39-.397-.664-.91-1.187-1.54-1.57-.628-.38-1.405-.572-2.332-.572-1.754 0-3.052.672-3.896 2.017-.844 1.345-1.266 3.162-1.266 5.453 0 2.49.39 4.382 1.166 5.677.778 1.295 2.06 1.942 3.846 1.942.926 0 1.712-.19 2.357-.573.645-.38 1.175-.91 1.588-1.592.414-.68.71-1.47.893-2.365.182-.896.273-1.876.273-2.938zm32.606 5.577c0 2.69-.95 4.7-2.854 6.028-1.902 1.328-4.392 1.992-7.47 1.992-1.72 0-3.53-.192-5.433-.574-1.9-.382-3.58-1.004-5.035-1.867-.265-.168-.422-.34-.47-.525-.05-.183.007-.44.173-.772l1.44-3.436c.164-.365.338-.59.52-.672.182-.083.455-.04.82.124.528.23 1.124.455 1.786.67.662.217 1.348.408 2.06.574.71.166 1.398.3 2.06.398.662.1 1.257.15 1.787.15 1.19 0 2.028-.208 2.507-.623.48-.416.72-.94.72-1.57 0-.664-.34-1.228-1.017-1.693-.68-.465-1.846-1.013-3.5-1.643-1.323-.498-2.49-1.013-3.5-1.544-1.008-.53-1.86-1.103-2.555-1.717-.695-.614-1.224-1.31-1.588-2.092-.364-.78-.546-1.683-.546-2.712 0-1.096.2-2.116.598-3.063.397-.946.993-1.768 1.787-2.465.794-.698 1.795-1.254 3.003-1.67 1.208-.414 2.64-.62 4.293-.62 1.49 0 3.004.14 4.54.422 1.54.282 2.938.705 4.196 1.27.364.166.562.34.596.523.034.183-.016.473-.148.87l-1.24 3.188c-.133.365-.282.573-.448.622-.165.05-.43.008-.794-.124-1.224-.363-2.35-.645-3.375-.845-1.026-.2-2.084-.3-3.176-.3-.893 0-1.54.208-1.936.623-.397.415-.596.838-.596 1.27 0 .664.306 1.212.918 1.643.612.433 1.68.93 3.2 1.495 1.192.465 2.317.938 3.376 1.42 1.06.48 1.978 1.045 2.755 1.692.778.647 1.398 1.42 1.86 2.316.464.896.696 1.975.696 3.237zm24.666 0c0 2.69-.95 4.7-2.854 6.028-1.902 1.328-4.392 1.992-7.47 1.992-1.72 0-3.53-.192-5.433-.574-1.902-.382-3.582-1.004-5.037-1.867-.265-.168-.422-.34-.47-.525-.05-.183.007-.44.173-.772l1.44-3.436c.164-.365.338-.59.52-.672.182-.083.455-.04.82.124.528.23 1.124.455 1.786.67.66.217 1.346.408 2.06.574.71.166 1.396.3 2.06.398.66.1 1.255.15 1.785.15 1.19 0 2.027-.208 2.506-.623.48-.416.72-.94.72-1.57 0-.664-.34-1.228-1.016-1.693-.678-.465-1.845-1.013-3.5-1.643-1.322-.498-2.49-1.013-3.498-1.544-1.01-.53-1.86-1.103-2.556-1.717-.694-.614-1.223-1.31-1.587-2.092-.364-.78-.546-1.683-.546-2.712 0-1.096.2-2.116.596-3.063.397-.946.993-1.768 1.787-2.465.794-.698 1.795-1.254 3.003-1.67 1.208-.414 2.64-.62 4.293-.62 1.49 0 3.003.14 4.54.422 1.54.282 2.937.705 4.195 1.27.366.166.564.34.598.523.033.183-.017.473-.15.87l-1.24 3.188c-.132.365-.28.573-.447.622-.164.05-.43.008-.793-.124-1.224-.363-2.35-.645-3.375-.845-1.025-.2-2.083-.3-3.175-.3-.893 0-1.54.208-1.936.623-.397.415-.596.838-.596 1.27 0 .664.306 1.212.918 1.643.613.433 1.68.93 3.202 1.495 1.19.465 2.316.938 3.375 1.42 1.06.48 1.976 1.045 2.753 1.692.78.647 1.4 1.42 1.862 2.316.463.896.695 1.975.695 3.237zm13.847 3.587c0 1.262-.436 2.324-1.313 3.187S114.397 37 113.107 37c-.63 0-1.225-.117-1.788-.35-.563-.23-1.05-.548-1.465-.946-.414-.398-.744-.87-.993-1.42-.247-.547-.37-1.136-.37-1.767s.123-1.22.37-1.768.58-1.02.994-1.42c.414-.398.902-.714 1.464-.946.562-.232 1.158-.35 1.787-.35 1.29 0 2.374.433 3.25 1.296.878.862 1.316 1.925 1.316 3.186zm28.09.647c0 .432-.056.797-.172 1.096-.116.298-.405.58-.87.846-.76.365-1.58.664-2.456.896-.876.232-1.77.415-2.68.548-.91.133-1.827.232-2.753.3-.927.065-1.804.1-2.63.1-2.25 0-4.11-.217-5.584-.648-1.472-.432-2.655-1.02-3.548-1.768-.893-.747-1.522-1.627-1.886-2.64-.364-1.012-.546-2.1-.546-3.26 0-1.296.215-2.483.645-3.562.43-1.08 1.075-2.017 1.936-2.814.86-.797 1.944-1.42 3.25-1.867 1.308-.446 2.855-.67 4.64-.67h5.46v-.797c0-.465-.05-.913-.15-1.345-.098-.432-.305-.805-.62-1.12-.313-.315-.752-.573-1.314-.772-.56-.2-1.306-.3-2.232-.3-.496 0-1.06.026-1.687.076-.628.05-1.256.117-1.885.2s-1.24.183-1.836.3c-.597.115-1.126.24-1.59.372-.43.1-.727.1-.892 0-.165-.1-.28-.315-.347-.647l-.793-3.486c-.1-.365-.108-.622-.025-.772.083-.15.256-.274.52-.373 1.49-.53 3.053-.913 4.69-1.145 1.64-.233 3.268-.35 4.89-.35 3.605 0 6.252.772 7.94 2.316 1.687 1.544 2.53 3.826 2.53 6.847v14.44zm-7.244-8.615h-3.92c-.464 0-.96.032-1.49.1-.53.065-1.017.223-1.464.472-.446.25-.818.607-1.116 1.072-.298.465-.447 1.096-.447 1.892 0 1.162.39 1.975 1.165 2.44.778.465 1.828.697 3.15.697.2 0 .464-.007.795-.024s.687-.05 1.067-.1c.38-.05.77-.117 1.166-.2.398-.083.762-.19 1.093-.324V24.55zm33.944-10.56c0 .5-.073.99-.222 1.47-.15.48-.405.938-.77 1.37l-11.91 13.444.1.25h12.11c.363 0 .61.057.743.173.134.116.2.357.2.722v4.032c0 .365-.057.614-.173.747-.116.132-.356.2-.72.2H152.51c-.827 0-1.43-.193-1.81-.575-.38-.382-.572-.905-.572-1.57v-1.493c0-.498.074-.996.223-1.494.15-.5.473-1.03.97-1.595l11.86-13.445-.1-.2h-10.817c-.397 0-.645-.065-.744-.198-.1-.133-.15-.382-.15-.747V11.2c0-.63.314-.945.943-.945h17.668c.828 0 1.45.124 1.86.373.416.25.62.788.62 1.618v1.743z" fill="#333"/></svg><svg width="122" height="27" viewBox="0 0 173 37" y="38"><path d="M24.517 23.106c0 1.926-.24 3.727-.72 5.403-.48 1.675-1.24 3.135-2.283 4.38-1.042 1.245-2.39 2.233-4.045 2.963-1.656.73-3.64 1.096-5.958 1.096-1.787 0-3.623-.15-5.51-.45-1.885-.3-3.59-.796-5.11-1.493-.398-.166-.646-.365-.745-.598-.1-.233-.15-.53-.15-.897V.996C0 .598.083.332.25.2.41.065.693 0 1.09 0h5.113c.364 0 .63.058.794.174.165.116.248.39.248.822v9.362c.86-.266 1.803-.465 2.83-.598 1.025-.133 2.034-.2 3.026-.2 2.02 0 3.75.35 5.188 1.047 1.44.697 2.622 1.652 3.548 2.863.926 1.212 1.605 2.648 2.035 4.308.43 1.66.646 3.436.646 5.328zm-7.494.15c0-2.524-.48-4.4-1.44-5.628-.96-1.228-2.298-1.843-4.02-1.843-.43 0-1.058.04-1.885.124-.827.08-1.638.255-2.432.52v13.845c.662.2 1.357.332 2.084.398.728.066 1.323.1 1.787.1 1.82 0 3.26-.564 4.318-1.693 1.06-1.128 1.588-3.07 1.588-5.825zm37.023-.05c0 4.38-1.042 7.767-3.127 10.158-2.086 2.39-5.263 3.585-9.53 3.585-4.3 0-7.445-1.197-9.43-3.587-1.986-2.39-2.98-5.743-2.98-10.06 0-2.124.29-4.04.87-5.75s1.406-3.147 2.48-4.31 2.383-2.057 3.92-2.688c1.54-.63 3.286-.946 5.238-.946 4.168 0 7.303 1.202 9.404 3.61 2.1 2.406 3.15 5.734 3.15 9.984zm-7.494.148c0-1.13-.083-2.158-.248-3.087-.165-.93-.447-1.726-.844-2.39-.397-.664-.91-1.187-1.54-1.57-.628-.38-1.405-.572-2.332-.572-1.754 0-3.052.672-3.896 2.017-.844 1.345-1.266 3.162-1.266 5.453 0 2.49.39 4.382 1.166 5.677.778 1.295 2.06 1.942 3.846 1.942.926 0 1.712-.19 2.357-.573.645-.38 1.175-.91 1.588-1.592.414-.68.71-1.47.893-2.365.182-.896.273-1.876.273-2.938zm32.606 5.577c0 2.69-.95 4.7-2.854 6.028-1.902 1.328-4.392 1.992-7.47 1.992-1.72 0-3.53-.192-5.433-.574-1.9-.382-3.58-1.004-5.035-1.867-.265-.168-.422-.34-.47-.525-.05-.183.007-.44.173-.772l1.44-3.436c.164-.365.338-.59.52-.672.182-.083.455-.04.82.124.528.23 1.124.455 1.786.67.662.217 1.348.408 2.06.574.71.166 1.398.3 2.06.398.662.1 1.257.15 1.787.15 1.19 0 2.028-.208 2.507-.623.48-.416.72-.94.72-1.57 0-.664-.34-1.228-1.017-1.693-.68-.465-1.846-1.013-3.5-1.643-1.323-.498-2.49-1.013-3.5-1.544-1.008-.53-1.86-1.103-2.555-1.717-.695-.614-1.224-1.31-1.588-2.092-.364-.78-.546-1.683-.546-2.712 0-1.096.2-2.116.598-3.063.397-.946.993-1.768 1.787-2.465.794-.698 1.795-1.254 3.003-1.67 1.208-.414 2.64-.62 4.293-.62 1.49 0 3.004.14 4.54.422 1.54.282 2.938.705 4.196 1.27.364.166.562.34.596.523.034.183-.016.473-.148.87l-1.24 3.188c-.133.365-.282.573-.448.622-.165.05-.43.008-.794-.124-1.224-.363-2.35-.645-3.375-.845-1.026-.2-2.084-.3-3.176-.3-.893 0-1.54.208-1.936.623-.397.415-.596.838-.596 1.27 0 .664.306 1.212.918 1.643.612.433 1.68.93 3.2 1.495 1.192.465 2.317.938 3.376 1.42 1.06.48 1.978 1.045 2.755 1.692.778.647 1.398 1.42 1.86 2.316.464.896.696 1.975.696 3.237zm24.666 0c0 2.69-.95 4.7-2.854 6.028-1.902 1.328-4.392 1.992-7.47 1.992-1.72 0-3.53-.192-5.433-.574-1.902-.382-3.582-1.004-5.037-1.867-.265-.168-.422-.34-.47-.525-.05-.183.007-.44.173-.772l1.44-3.436c.164-.365.338-.59.52-.672.182-.083.455-.04.82.124.528.23 1.124.455 1.786.67.66.217 1.346.408 2.06.574.71.166 1.396.3 2.06.398.66.1 1.255.15 1.785.15 1.19 0 2.027-.208 2.506-.623.48-.416.72-.94.72-1.57 0-.664-.34-1.228-1.016-1.693-.678-.465-1.845-1.013-3.5-1.643-1.322-.498-2.49-1.013-3.498-1.544-1.01-.53-1.86-1.103-2.556-1.717-.694-.614-1.223-1.31-1.587-2.092-.364-.78-.546-1.683-.546-2.712 0-1.096.2-2.116.596-3.063.397-.946.993-1.768 1.787-2.465.794-.698 1.795-1.254 3.003-1.67 1.208-.414 2.64-.62 4.293-.62 1.49 0 3.003.14 4.54.422 1.54.282 2.937.705 4.195 1.27.366.166.564.34.598.523.033.183-.017.473-.15.87l-1.24 3.188c-.132.365-.28.573-.447.622-.164.05-.43.008-.793-.124-1.224-.363-2.35-.645-3.375-.845-1.025-.2-2.083-.3-3.175-.3-.893 0-1.54.208-1.936.623-.397.415-.596.838-.596 1.27 0 .664.306 1.212.918 1.643.613.433 1.68.93 3.202 1.495 1.19.465 2.316.938 3.375 1.42 1.06.48 1.976 1.045 2.753 1.692.78.647 1.4 1.42 1.862 2.316.463.896.695 1.975.695 3.237zm13.847 3.587c0 1.262-.436 2.324-1.313 3.187S114.397 37 113.107 37c-.63 0-1.225-.117-1.788-.35-.563-.23-1.05-.548-1.465-.946-.414-.398-.744-.87-.993-1.42-.247-.547-.37-1.136-.37-1.767s.123-1.22.37-1.768.58-1.02.994-1.42c.414-.398.902-.714 1.464-.946.562-.232 1.158-.35 1.787-.35 1.29 0 2.374.433 3.25 1.296.878.862 1.316 1.925 1.316 3.186zm28.09.647c0 .432-.056.797-.172 1.096-.116.298-.405.58-.87.846-.76.365-1.58.664-2.456.896-.876.232-1.77.415-2.68.548-.91.133-1.827.232-2.753.3-.927.065-1.804.1-2.63.1-2.25 0-4.11-.217-5.584-.648-1.472-.432-2.655-1.02-3.548-1.768-.893-.747-1.522-1.627-1.886-2.64-.364-1.012-.546-2.1-.546-3.26 0-1.296.215-2.483.645-3.562.43-1.08 1.075-2.017 1.936-2.814.86-.797 1.944-1.42 3.25-1.867 1.308-.446 2.855-.67 4.64-.67h5.46v-.797c0-.465-.05-.913-.15-1.345-.098-.432-.305-.805-.62-1.12-.313-.315-.752-.573-1.314-.772-.56-.2-1.306-.3-2.232-.3-.496 0-1.06.026-1.687.076-.628.05-1.256.117-1.885.2s-1.24.183-1.836.3c-.597.115-1.126.24-1.59.372-.43.1-.727.1-.892 0-.165-.1-.28-.315-.347-.647l-.793-3.486c-.1-.365-.108-.622-.025-.772.083-.15.256-.274.52-.373 1.49-.53 3.053-.913 4.69-1.145 1.64-.233 3.268-.35 4.89-.35 3.605 0 6.252.772 7.94 2.316 1.687 1.544 2.53 3.826 2.53 6.847v14.44zm-7.244-8.615h-3.92c-.464 0-.96.032-1.49.1-.53.065-1.017.223-1.464.472-.446.25-.818.607-1.116 1.072-.298.465-.447 1.096-.447 1.892 0 1.162.39 1.975 1.165 2.44.778.465 1.828.697 3.15.697.2 0 .464-.007.795-.024s.687-.05 1.067-.1c.38-.05.77-.117 1.166-.2.398-.083.762-.19 1.093-.324V24.55zm33.944-10.56c0 .5-.073.99-.222 1.47-.15.48-.405.938-.77 1.37l-11.91 13.444.1.25h12.11c.363 0 .61.057.743.173.134.116.2.357.2.722v4.032c0 .365-.057.614-.173.747-.116.132-.356.2-.72.2H152.51c-.827 0-1.43-.193-1.81-.575-.38-.382-.572-.905-.572-1.57v-1.493c0-.498.074-.996.223-1.494.15-.5.473-1.03.97-1.595l11.86-13.445-.1-.2h-10.817c-.397 0-.645-.065-.744-.198-.1-.133-.15-.382-.15-.747V11.2c0-.63.314-.945.943-.945h17.668c.828 0 1.45.124 1.86.373.416.25.62.788.62 1.618v1.743z" fill="#333"/></svg><svg height="40" width="47" viewBox="0 0 47 40" y="65"><title>blockquote</title><path d="M45.92 29.12c0 3.093-.933 5.573-2.8 7.44s-4.187 2.8-6.96 2.8c-3.413 0-6.107-1.253-8.08-3.76s-2.96-5.787-2.96-9.84c0-4.16.587-7.733 1.76-10.72s2.613-5.493 4.32-7.52 3.44-3.627 5.2-4.8S39.68.693 40.96.16l5.12 8.16c-1.813.96-3.44 2.4-4.88 4.32s-2.267 4-2.48 6.24c1.813.213 3.467 1.2 4.96 2.96s2.24 4.187 2.24 7.28zm-24.48 0c0 3.093-.933 5.573-2.8 7.44s-4.187 2.8-6.96 2.8c-3.413 0-6.107-1.253-8.08-3.76S.64 29.813.64 25.76c0-4.16.587-7.733 1.76-10.72s2.613-5.493 4.32-7.52 3.44-3.627 5.2-4.8S15.2.693 16.48.16l5.12 8.16c-1.813.96-3.44 2.4-4.88 4.32s-2.267 4-2.48 6.24c1.813.213 3.467 1.2 4.96 2.96s2.24 4.187 2.24 7.28z" fill="#F8CB1C" fill-rule="evenodd"/></svg><svg width="13" height="13" viewBox="0 0 13 13" x="47" y="65"><title>icon-search</title><path d="M10.892 12.306l.707.707L13.01 11.6l-.707-.71-3.1-3.1-.706-.705L7.085 8.5l.707.707 3.1 3.1zM10 5c0-2.76-2.24-5-5-5S0 2.24 0 5s2.24 5 5 5 5-2.24 5-5zM2 5c0-1.657 1.343-3 3-3s3 1.343 3 3-1.343 3-3 3-3-1.343-3-3z" fill="#333"/></svg></svg>